# xmcd CD database file
#
# Track frame offsets:
#	150
#	38711
#	66580
#	89344
#	117348
#	143465
#	157421
#	170522
#	194212
#	203563
#	223861
#
# Disc length: 3126 seconds
#
# Revision: 0
# Processed by: cddbd v1.5.2PL0 Copyright (c) Steve Scherf et al.
# Submitted via: CDex 1.51
#
DISCID=ac0c340b
DTITLE=Umoja Orchestra - Abre La Puerta
DYEAR=2008
DGENRE=Salsa
TTITLE0=Bahía Portete
TTITLE1=Baile
TTITLE2=Pa' Colombia
TTITLE3=Talkatalk
TTITLE4=B.D.D.
TTITLE5=Intermición
TTITLE6=Indocumentado
TTITLE7=La Puerta
TTITLE8=El Verano I
TTITLE9=El Verano II
TTITLE10=Yo y Tú y Tú y Yo
EXTD=YEAR: 2008
EXTT0=
EXTT1=
EXTT2=
EXTT3=
EXTT4=
EXTT5=
EXTT6=
EXTT7=
EXTT8=
EXTT9=
EXTT10=
PLAYORDER=
